<svg xmlns="http://www.w3.org/2000/svg" xmlns:xlink="http://www.w3.org/1999/xlink" xmlns:xodm="http://www.corel.com/coreldraw/odm/2003" xml:space="preserve" version="1.1" style="shape-rendering:geometricPrecision; text-rendering:geometricPrecision; image-rendering:optimizeQuality; fill-rule:evenodd; clip-rule:evenodd" viewBox="1478.64 11944.11 15922.49 4670.02">
 <defs>
  <style type="text/css">
   <![CDATA[
    .fil0 {fill:#D3AE6E}
    .fil2 {fill:#D3AE6E;fill-rule:nonzero}
    .fil1 {fill:black;fill-rule:nonzero}
   ]]>
  </style>
 </defs>
 <g id="Layer_x0020_1">
  <metadata id="CorelCorpID_0Corel-Layer"/>
  <g id="_333789576">
   <path class="fil0" d="M3310.34 12444.24l326.38 -326.38 173.75 -173.75 173.76 173.75 326.37 326.38c164.16,164.16 227.31,392.59 189.48,606.2 195.45,-35.12 403.49,14.35 563.49,148.44l-174.81 174.81c-169.65,-128.19 -413.76,-117.16 -570.57,33.13 -2.52,2.6 -5.02,5.22 -7.59,7.78l-326.37 326.38 268.48 268.49 -173.75 173.75 -768.62 -768.62c-266.85,-266.85 -266.85,-703.51 0,-970.36zm833.99 788.94c-2.19,2.14 -4.41,4.25 -6.59,6.42l-327.44 327.45 -326.2 -326.2c-170.95,-170.94 -170.95,-451.92 0,-622.86l326.37 -326.38 326.38 326.38c168.41,168.41 170.9,443.61 7.48,615.19z"/>
   <path class="fil0" d="M1978.77 14782.43l-326.38 -326.38 -173.75 -173.75 173.75 -173.76 326.38 -326.37c164.16,-164.16 392.59,-227.31 606.2,-189.47 -35.12,-195.46 14.35,-403.5 148.44,-563.5l174.81 174.81c-128.19,169.66 -117.16,413.76 33.13,570.57 2.6,2.52 5.22,5.02 7.78,7.59l326.38 326.37 268.49 -268.48 173.75 173.75 -768.62 768.62c-266.85,266.85 -703.51,266.85 -970.36,0zm788.94 -833.99c2.14,2.2 4.25,4.41 6.42,6.59l327.45 327.44 -326.2 326.2c-170.94,170.95 -451.92,170.95 -622.86,0l-326.38 -326.37 326.38 -326.38c168.41,-168.41 443.61,-170.9 615.19,-7.48z"/>
   <path class="fil0" d="M4316.95 16114.01l-326.37 326.37 -173.76 173.75 -173.75 -173.75 -326.38 -326.37c-164.16,-164.17 -227.3,-392.59 -189.47,-606.21 -195.45,35.13 -403.49,-14.35 -563.49,-148.44l174.81 -174.81c169.65,128.19 413.75,117.16 570.57,-33.13 2.52,-2.6 5.02,-5.21 7.58,-7.78l326.38 -326.38 -268.49 -268.49 173.76 -173.75 768.61 768.62c266.85,266.85 266.85,703.51 0,970.37zm-833.98 -788.94c2.19,-2.14 4.41,-4.26 6.58,-6.43l327.45 -327.45 326.2 326.2c170.95,170.94 170.95,451.92 0,622.86l-326.38 326.38 -326.37 -326.38c-168.41,-168.41 -170.9,-443.61 -7.48,-615.18z"/>
   <path class="fil0" d="M5648.53 13775.82l326.38 326.37 173.75 173.76 -173.75 173.75 -326.38 326.38c-164.16,164.16 -392.59,227.3 -606.2,189.47 35.12,195.45 -14.35,403.49 -148.44,563.49l-174.81 -174.81c128.19,-169.65 117.16,-413.75 -33.13,-570.57 -2.6,-2.52 -5.22,-5.02 -7.78,-7.58l-326.38 -326.38 -268.49 268.49 -173.75 -173.75 768.62 -768.62c266.85,-266.85 703.51,-266.85 970.36,0zm-788.94 833.98c-2.14,-2.19 -4.25,-4.41 -6.42,-6.58l-327.45 -327.45 326.2 -326.2c170.94,-170.94 451.92,-170.94 622.86,0l326.38 326.38 -326.38 326.37c-168.41,168.42 -443.61,170.91 -615.19,7.48z"/>
  </g>
  <path class="fil1" d="M8158.38 16059.86c-36.85,0 -72.39,-4.77 -106.61,-14.31 -34.21,-9.54 -62.18,-23.36 -83.9,-41.46 -21.71,-18.09 -32.57,-38.99 -32.57,-62.68l0 -115.48 27.64 0c9.87,67.12 30.6,115.48 62.18,145.09 31.59,29.62 75.68,44.42 132.27,44.42 38.17,0 68.44,-8.22 90.81,-24.67 22.37,-16.46 33.56,-40.14 33.56,-71.07 0,-26.32 -8.23,-48.7 -24.68,-67.12 -16.45,-18.43 -42.11,-38.5 -76.99,-60.21l-121.41 -73.05c-44.08,-25.66 -75.51,-52.31 -94.26,-79.95 -18.75,-27.64 -28.13,-59.88 -28.13,-96.73 0,-51.98 19.9,-93.11 59.72,-123.38 39.81,-30.27 93.6,-45.41 161.38,-45.41 36.85,0 72.38,4.77 106.6,14.32 34.22,9.54 62.19,23.36 83.9,41.45 21.72,18.1 32.58,38.99 32.58,62.68l0 115.49 -27.64 0c-11.19,-67.12 -31.92,-115.49 -62.19,-145.1 -30.27,-29.61 -71.06,-44.42 -122.39,-44.42 -35.54,0 -63.67,8.56 -84.4,25.66 -20.72,17.11 -31.09,40.47 -31.09,70.09 0,25.66 8.06,46.88 24.18,63.66 16.13,16.78 42.28,35.7 78.48,56.76l121.4 72.05c46.07,26.98 79.13,53.14 99.2,78.47 20.07,25.34 30.11,55.77 30.11,91.31 0,57.25 -21.55,102.16 -64.65,134.73 -43.1,32.57 -104.14,48.86 -183.1,48.86zm344.48 -552.75c-14.48,-36.2 -29.28,-61.86 -44.42,-76.99 -15.13,-15.14 -32.9,-24.02 -53.3,-26.65l0 -19.75 41.46 -1.97c44.09,0 82.58,8.06 115.48,24.18 32.91,16.12 59.56,49.85 79.96,101.18l133.25 340.53 88.83 -252.69 -34.54 -87.84c-14.48,-35.54 -30.11,-61.04 -46.89,-76.5 -16.78,-15.46 -36.03,-24.51 -57.74,-27.14l0 -19.75 38.49 -1.97c44.09,0 82.59,8.23 115.49,24.68 32.9,16.45 59.55,50.01 79.95,100.68l141.15 359.29 168.79 -474.78 47.38 0 -233.94 660.34 -39.48 0 -152 -386.92 -135.23 386.92 -39.48 0 -213.21 -544.85zm927.84 12.83c0,-33.56 -4.61,-58.4 -13.82,-74.52 -9.21,-16.13 -27.64,-24.19 -55.27,-24.19l-9.87 0 0 -29.61 435.29 0c55.93,0 83.9,26.32 83.9,78.97l0 83.9 -29.61 0c0,-40.8 -10.37,-70.74 -31.09,-89.83 -20.73,-19.08 -51.5,-28.62 -92.29,-28.62l-158.92 0 0 246.76 256.63 0 0 44.42 -256.63 0 0 271.44 168.79 0c37.5,0 68.76,-8.39 93.77,-25.17 25,-16.78 45.73,-45.9 62.18,-87.35l26.65 9.87 -28.62 77.98c-8.56,23.69 -18.76,41.12 -30.6,52.31 -11.85,11.19 -30.27,16.78 -55.28,16.78l-365.21 0 0 -523.14zm592.24 0c0,-33.56 -4.61,-58.4 -13.82,-74.52 -9.21,-16.13 -27.64,-24.19 -55.27,-24.19l-9.87 0 0 -29.61 435.29 0c55.93,0 83.9,26.32 83.9,78.97l0 83.9 -29.61 0c0,-40.8 -10.37,-70.74 -31.09,-89.83 -20.73,-19.08 -51.5,-28.62 -92.29,-28.62l-158.92 0 0 246.76 256.63 0 0 44.42 -256.63 0 0 271.44 168.79 0c37.5,0 68.76,-8.39 93.77,-25.17 25,-16.78 45.73,-45.9 62.18,-87.35l26.65 9.87 -28.62 77.98c-8.56,23.69 -18.76,41.12 -30.6,52.31 -11.85,11.19 -30.27,16.78 -55.28,16.78l-365.21 0 0 -523.14zm727.47 -83.9l-70.08 0c-36.85,0 -64.98,9.21 -84.4,27.64 -19.41,18.42 -29.12,48.69 -29.12,90.81l-29.61 0 0 -83.9c0,-52.65 27.97,-78.97 83.9,-78.97l463.92 0 0 44.42 -206.29 0 0 607.04 -128.32 0 0 -607.04zm608.03 623.82c-36.85,0 -72.39,-4.77 -106.61,-14.31 -34.21,-9.54 -62.18,-23.36 -83.9,-41.46 -21.71,-18.09 -32.57,-38.99 -32.57,-62.68l0 -115.48 27.64 0c9.87,67.12 30.6,115.48 62.18,145.09 31.59,29.62 75.68,44.42 132.27,44.42 38.17,0 68.44,-8.22 90.81,-24.67 22.37,-16.46 33.56,-40.14 33.56,-71.07 0,-26.32 -8.23,-48.7 -24.68,-67.12 -16.45,-18.43 -42.11,-38.5 -76.99,-60.21l-121.41 -73.05c-44.08,-25.66 -75.51,-52.31 -94.26,-79.95 -18.75,-27.64 -28.13,-59.88 -28.13,-96.73 0,-51.98 19.9,-93.11 59.72,-123.38 39.81,-30.27 93.6,-45.41 161.38,-45.41 36.85,0 72.38,4.77 106.6,14.32 34.22,9.54 62.19,23.36 83.9,41.45 21.72,18.1 32.58,38.99 32.58,62.68l0 115.49 -27.64 0c-11.19,-67.12 -31.92,-115.49 -62.19,-145.1 -30.27,-29.61 -71.06,-44.42 -122.39,-44.42 -35.54,0 -63.67,8.56 -84.4,25.66 -20.72,17.11 -31.09,40.47 -31.09,70.09 0,25.66 8.06,46.88 24.18,63.66 16.13,16.78 42.28,35.7 78.48,56.76l121.4 72.05c46.07,26.98 79.13,53.14 99.2,78.47 20.07,25.34 30.11,55.77 30.11,91.31 0,57.25 -21.55,102.16 -64.65,134.73 -43.1,32.57 -104.14,48.86 -183.1,48.86zm1013.7 -16.78l-37.51 -37.51c0,1.32 -8.39,6.91 -25.17,16.78 -16.78,9.87 -37.83,19.08 -63.17,27.64 -25.33,8.55 -52.48,12.83 -81.43,12.83 -85.55,0 -147.57,-14.15 -186.06,-42.44 -38.5,-28.3 -57.74,-65.15 -57.74,-110.55 0,-40.8 13.81,-76.17 41.45,-106.11 27.64,-29.94 65.81,-57.42 114.5,-82.42 -23.03,-20.4 -47.05,-48.2 -72.05,-83.41 -25.01,-35.2 -37.51,-72.55 -37.51,-112.03 0,-48.69 17.44,-86.53 52.31,-113.51 34.88,-26.98 83.24,-40.47 145.1,-40.47 58.57,0 103.64,12.5 135.23,37.51 31.58,25 47.38,58.56 47.38,100.68 0,37.51 -13.82,72.22 -41.46,104.13 -27.64,31.92 -64.82,63.01 -111.54,93.28l182.61 197.41c17.76,-19.74 37.51,-46.39 59.22,-79.95 7.24,-10.53 15.14,-23.69 23.69,-39.48l37.51 24.67c-5.92,14.48 -13.16,28.63 -21.72,42.45 -19.74,33.56 -41.45,63.17 -65.14,88.83l95.74 101.67 -134.24 0zm-207.28 -631.72c-23.69,0 -41.13,8.56 -52.31,25.67 -11.19,17.1 -16.78,46.72 -16.78,88.83 0,52.64 20.72,99.69 62.18,141.15 23.03,-21.06 40.63,-43.27 52.81,-66.63 12.17,-23.36 18.26,-50.17 18.26,-80.44 0,-37.51 -6.42,-64.98 -19.25,-82.42 -12.83,-17.44 -27.8,-26.16 -44.91,-26.16zm8.88 611.98c25.67,0 50.01,-4.94 73.05,-14.81 23.03,-9.87 42.44,-22.04 58.23,-36.52l-188.53 -203.33c-44.74,39.48 -67.12,83.24 -67.12,131.28 0,38.16 10.53,68.27 31.59,90.31 21.06,22.05 51.98,33.07 92.78,33.07zm952.51 39.48c-67.78,0 -126.18,-14.64 -175.2,-43.92 -49.03,-29.29 -86.37,-69.26 -112.03,-119.93 -25.67,-50.67 -38.5,-107.92 -38.5,-171.75 0,-65.8 14.15,-125.85 42.44,-180.14 28.3,-54.29 67.29,-97.06 116.97,-128.32 49.68,-31.25 105.12,-46.88 166.32,-46.88 57.91,0 106.27,7.4 145.1,22.21 38.82,14.8 68.43,34.05 88.83,57.74 11.85,15.14 19.09,33.89 21.72,56.26 2.63,22.38 3.95,53.63 3.95,93.77l-29.61 0c-12.51,-60.54 -35.54,-106.6 -69.1,-138.18 -33.56,-31.59 -77.32,-47.38 -131.28,-47.38 -67.12,0 -120.09,23.69 -158.91,71.07 -38.83,47.37 -58.24,127.33 -58.24,239.85 0,83.57 17.77,153 53.3,208.27 35.54,55.28 90.15,82.91 163.85,82.91 46.07,0 88.34,-12.17 126.84,-36.52 38.5,-24.35 69.59,-59.22 93.28,-104.63l34.54 26.65c-31.58,55.28 -69.75,95.58 -114.49,120.92 -44.75,25.33 -101.34,38 -169.78,38zm927.83 -15.79c-41.45,0 -78.96,-8.72 -112.52,-26.16 -33.56,-17.44 -60.87,-51.49 -81.93,-102.16l-22.7 -55.27 -262.56 0 -80.94 179.64 -51.32 0 291.18 -651.46 44.42 0 221.1 527.09c25,61.2 59.22,94.1 102.65,98.71l0 24.67c-11.84,3.29 -27.64,4.94 -47.38,4.94zm-235.9 -228.01l-108.58 -257.63 -114.5 257.63 223.08 0zm877.49 233.93c-41.45,0 -81.1,-8.39 -118.94,-25.17 -37.83,-16.78 -78.47,-47.87 -121.9,-93.28l-158.91 -165.82 0 274.4 -128.32 0 -0.99 -523.14c0,-33.56 -4.61,-58.4 -13.82,-74.52 -9.21,-16.13 -27.64,-24.19 -55.27,-24.19l-9.87 0 0 -29.61 118.44 0c23.03,0 40.97,3.95 53.8,11.85 12.83,7.89 22.04,21.05 27.64,39.48 5.59,18.42 8.39,44.09 8.39,76.99l0 187.54 170.76 -212.22c24.34,-31.58 50.5,-56.75 78.47,-75.51 27.96,-18.75 60.04,-28.13 96.24,-28.13l69.09 0 0 34.55c-40.8,0 -75.84,5.1 -105.12,15.3 -29.28,10.2 -54.45,28.46 -75.51,54.78l-147.07 181.62 228.01 236.89c24.35,26.98 51.82,50.51 82.42,70.58 30.6,20.07 55.44,31.42 74.52,34.05l0 23.69c-19.74,6.58 -43.76,9.87 -72.06,9.87zm154.97 -533.01c0,-33.56 -4.61,-58.4 -13.82,-74.52 -9.21,-16.13 -27.64,-24.19 -55.27,-24.19l-9.87 0 0 -29.61 435.29 0c55.93,0 83.9,26.32 83.9,78.97l0 83.9 -29.61 0c0,-40.8 -10.37,-70.74 -31.09,-89.83 -20.73,-19.08 -51.5,-28.62 -92.29,-28.62l-158.92 0 0 246.76 256.63 0 0 44.42 -256.63 0 0 271.44 168.79 0c37.5,0 68.76,-8.39 93.77,-25.17 25,-16.78 45.73,-45.9 62.18,-87.35l26.65 9.87 -28.62 77.98c-8.56,23.69 -18.76,41.12 -30.6,52.31 -11.85,11.19 -30.27,16.78 -55.28,16.78l-365.21 0 0 -523.14zm767.94 539.92c-36.85,0 -72.39,-4.77 -106.61,-14.31 -34.21,-9.54 -62.18,-23.36 -83.9,-41.46 -21.71,-18.09 -32.57,-38.99 -32.57,-62.68l0 -115.48 27.64 0c9.87,67.12 30.6,115.48 62.18,145.09 31.59,29.62 75.68,44.42 132.27,44.42 38.17,0 68.44,-8.22 90.81,-24.67 22.37,-16.46 33.56,-40.14 33.56,-71.07 0,-26.32 -8.23,-48.7 -24.68,-67.12 -16.45,-18.43 -42.11,-38.5 -76.99,-60.21l-121.41 -73.05c-44.08,-25.66 -75.51,-52.31 -94.26,-79.95 -18.75,-27.64 -28.13,-59.88 -28.13,-96.73 0,-51.98 19.9,-93.11 59.72,-123.38 39.81,-30.27 93.6,-45.41 161.38,-45.41 36.85,0 72.38,4.77 106.6,14.32 34.22,9.54 62.19,23.36 83.9,41.45 21.72,18.1 32.58,38.99 32.58,62.68l0 115.49 -27.64 0c-11.19,-67.12 -31.92,-115.49 -62.19,-145.1 -30.27,-29.61 -71.06,-44.42 -122.39,-44.42 -35.54,0 -63.67,8.56 -84.4,25.66 -20.72,17.11 -31.09,40.47 -31.09,70.09 0,25.66 8.06,46.88 24.18,63.66 16.13,16.78 42.28,35.7 78.48,56.76l121.4 72.05c46.07,26.98 79.13,53.14 99.2,78.47 20.07,25.34 30.11,55.77 30.11,91.31 0,57.25 -21.55,102.16 -64.65,134.73 -43.1,32.57 -104.14,48.86 -183.1,48.86z"/>
  <path class="fil2" d="M6576.86 13295.96l548.45 0 0 1499.27 -548.45 0 0 -1499.27zm1196.12 623.31c90.49,170.42 184.65,326.59 282.03,468.07 97.84,141.93 200.27,269.63 307.75,383.55l-435.45 324.75c-153.42,-172.26 -294.89,-362.88 -424.88,-571.42 -130.45,-208.54 -252.18,-440.96 -366.55,-696.81 163.52,-105.65 283.41,-197.98 360.12,-277.44 76.25,-79.47 114.37,-149.75 114.37,-211.76 0,-39.5 -13.78,-69.82 -40.88,-91.86 -27.56,-22.05 -67.06,-33.08 -118.05,-33.08l-971.04 0 124.94 -460.25 956.34 0c337.45,0 646.75,136.77 646.75,517.67 0,127.24 -36.29,244.37 -108.41,350.93 -72.11,107.03 -180.97,205.79 -327.04,297.65zm1883.74 -1166.25l327.97 0 124.48 460.25 -416.16 0c-198.9,0 -357.37,36.75 -474.5,110.7 -116.67,73.96 -204.86,192.01 -264.12,355.07l520.89 0 0 -383.08 551.2 0 0 1499.27 -551.2 0 0 -644.91 -576.01 0c5.51,111.16 25.73,220.48 60.64,327.97 34.9,107.02 84.51,212.67 148.82,316.94l-435.45 286.63c-109.32,-167.66 -191.09,-336.24 -245.75,-505.27 -54.66,-169.04 -82.22,-339.45 -82.22,-511.71 0,-194.75 32.62,-377.57 97.38,-548.9 65.23,-171.34 156.64,-316.49 275.14,-434.54 110.25,-110.7 242.99,-192.92 397.33,-247.12 154.8,-54.2 335.32,-81.3 541.56,-81.3zm734.02 0l509.87 0 440.96 683.49 437.75 -683.49 513.08 0 0 2042.21 -542.94 0 21.59 -1222.75 -429.48 594.38 -430.86 -594.38 22.97 1222.75 -542.94 0 0 -2042.21zm3618.2 454.74l-818.54 0 0 316.94 746.88 0 -135.96 460.26 -610.92 0 0 350.01 887.44 0 -147.45 460.26 -1288.44 0 0 -2042.21 1242.96 0 124.03 454.74zm1466.19 11.03l-537.88 0c-36.75,0 -62.93,5.51 -79.46,16.07 -16.54,11.03 -24.81,28.48 -24.81,52.37 0,13.78 3.68,27.56 11.48,41.8 7.35,14.7 20.22,31.69 37.67,51.44l447.39 499.3c67.99,77.17 118.51,152.04 151.59,224.62 32.61,73.03 49.14,146.99 49.14,222.32 0,74.41 -15.61,143.77 -47.31,208.08 -31.23,64.3 -75.33,116.67 -131.83,158.01 -50.06,36.74 -112.53,63.39 -186.95,79 -74.41,15.62 -188.33,23.43 -341.74,23.43l-471.74 0 -135.05 -471.28 595.76 0c31.24,0 55.12,-6.43 71.2,-18.83 16.54,-12.4 24.8,-31.24 24.8,-56.5 0,-10.11 -3.67,-22.05 -11.48,-37.21 -7.35,-14.7 -17.45,-29.85 -29.86,-45.01l-488.73 -545.23c-50.07,-57.42 -88.65,-119.89 -115.75,-187.87 -27.1,-68.44 -40.43,-136.89 -40.43,-205.79 0,-55.58 8.27,-108.4 24.35,-158.47 16.08,-50.52 39.96,-96.46 71.2,-138.72 48.69,-63.39 112.07,-108.86 190.16,-136.42 78.09,-27.1 193.38,-40.88 345.88,-40.88l498.38 0 124.02 465.77zm829.11 -465.77l0 639.4 548.45 0 0 -639.4 548.44 0 0 2042.21 -548.44 0 0 -931.53 -548.45 0 0 502.05c0,126.78 2.29,221.86 6.89,286.17 4.13,64.3 11.94,112.08 22.96,143.31l-473.57 303.16c-38.59,-57.41 -66.15,-136.42 -82.68,-236.56 -16.54,-99.67 -24.81,-252.63 -24.81,-458.41l0 -1650.4 551.21 0z"/>
 </g>
</svg>